<?xml version="1.0" encoding="utf-8"?>

<svg version="1.1" id="Layer_1" xmlns="http://www.w3.org/2000/svg" xmlns:xlink="http://www.w3.org/1999/xlink" x="0px" y="0px"
	 viewBox="0 0 1680 403" style="enable-background:new 0 0 1680 403;" xml:space="preserve">
<style type="text/css">
	.st0{fill:#EC0F29;}
</style>
<g id="_x23_214e9eff">
	<path class="st0" d="M152.2,24.1c24.3-4.9,49.1-6.4,73.8-6.1c18.1,0.6,36.4,1.7,53.8,7c16.6,5.8,32.9,14.4,44.6,27.9
		c12.9,14.8,18.6,34.2,21.6,53.2c1.5,10,2.5,20.1,2.5,30.3c-16-0.1-32.1-0.1-48.1,0c-0.3-19.6-4.8-40.5-18.5-55.2
		c-16.8-16.9-40.3-26-63.8-27.8c-14.5-1.2-29,0.6-43.2,3.5c-17.2,3.7-34.4,9.7-48.4,20.5c-12.8,10.2-24.2,23.5-28.7,39.6
		c-4.1,15.2-3.2,32.5,5.5,45.9c9.4,14.2,24.6,23.5,40.2,29.6c26.4,10.1,54.1,15.6,81.4,22.6c11.5,2.7,22.5,7.9,32.2,14.7
		c6.4,4.8,12.7,11.2,13.8,19.6c1.8,15.1-1.2,31.1-9.8,43.8c-8.5,12.9-21.1,22.5-34.4,30.1c-23,13.3-50.1,18.9-76.5,16.6
		c-15.2-1.3-30.5-4.2-44.5-10.5c-12.9-5.6-24-16-28.9-29.4c-7.1-19.3-8.3-40.1-8.9-60.5c16,0,32,0.1,48,0
		c-0.7,15.8,1.1,32.9,10.7,46c7.3,10.4,20.3,14.8,32.4,15.8c13,0.8,26.9-1.7,37.4-9.8c5.8-5.7,11.9-12.3,13-20.6
		c0.4-5.9-2.9-11.3-6.7-15.6c-4.9-5.6-12-8.4-18.8-10.9c-20.4-7.2-42-9.8-62.8-15.3c-19.4-5.9-39.4-13.5-53.4-28.8
		c-13.1-14.2-19.3-33.6-21.2-52.5c-1.8-18.9,1.5-38.7,11.7-54.9c4.1-6.1,8.5-11.9,13.2-17.4C92,50.7,120.2,31,152.2,24.1z"/>
	<path class="st0" d="M1479,26.9c11.9-1.5,24-2.5,36-2.5c10.7,0,21.4-0.2,32,0.8c15.7,1.3,31.6,3.4,46.2,9.7
		c15.8,6.4,30.6,16.3,40.6,30.4c9.4,13.5,14.2,29.6,16.8,45.7c1.7,10.5,2.8,21.2,2.9,31.8c-16.1,0-32.1,0-48.2,0
		c-0.2-19.2-4.8-39.5-17.8-54.2c-14.4-14.9-34.2-23.9-54.5-27.4c-20.4-3.6-41.3-0.8-61.2,4.1c-19.5,5.1-39.2,13.6-52.5,29.2
		c-13.8,14.7-21.5,35.5-18.4,55.6c1.5,11.7,7.8,22.5,16.6,30.2c11.5,10.2,25.7,16.8,40.1,21.8c23.9,8.3,48.8,13.5,73.3,19.8
		c10.3,2.5,20.1,7.2,28.9,13c6.8,4.7,13.7,10.8,15.5,19.2c1.4,8.9,0.6,18-1.4,26.8c-3.6,15.4-14,28.4-26.2,38
		c-18.9,14.9-41.9,24.5-65.9,27.2c-22.5,2.3-45.7-0.3-66.9-8c-14.7-5.3-28-16-33.6-30.9c-7.4-19.6-8.1-40.8-9.1-61.5
		c16.1,0,32.1,0.1,48.2,0c-0.5,12.4,0.5,25.1,5.2,36.6c3.5,8.6,9.7,16.5,18.2,20.5c15.4,7.2,34,6.6,49.5-0.2
		c7.4-3,12.9-9.1,17.2-15.6c2.6-4.1,4.4-9.2,3-14.1c-1.7-6.5-6.6-11.6-11.7-15.7c-8.2-5.3-17.7-8.1-27.1-10.6
		c-11.5-3-23.2-5.1-34.8-7.6c-13.1-2.6-25.8-6.6-38-11.8c-16.9-7.1-32.3-19.2-40.4-35.9c-13.2-26.9-15.3-60.4-1-87.3
		c8.4-14.4,19.7-27,32-38.2c16.8-14.9,36.6-26.9,58.2-33.3C1460,29.6,1469.6,28.2,1479,26.9z"/>
	<path class="st0" d="M401,30.7c86.2,0,172.4,0,258.6,0c-3.2,13.6-6.4,27.2-9.4,40.8c-69.2,0-138.5,0-207.7,0
		c-21.1,87.2-42.3,174.3-63.3,261.5c68.6,0,137.2,0,205.8,0c-2.7,13.2-5.6,26.4-8.1,39.7c-51,0.1-101.9-0.4-152.9-0.2
		c-35.9-0.6-71.9,0.3-107.8-0.5C344.4,258.2,372.9,144.5,401,30.7z"/>
	<path class="st0" d="M793.9,31.5c15,0,29.9,0,44.9,0c-68.8,114.1-138,227.9-207,342c-15.7,0-31.3,0-47,0
		c19.2-32.2,39.1-63.9,58.5-95.9C693.5,195.5,743.8,113.6,793.9,31.5z"/>
	<path class="st0" d="M853,31.5c15.2-0.1,30.4,0.1,45.5-0.1c19.6,114,39,228,58.5,342c-14.2,0-28.4,0-42.5,0
		c-17-95.3-33.8-190.6-50.7-285.9c-2.4,4.1-5.6,7.9-7.5,12.2c9.7,56.6,19.3,113.3,29.3,169.8c-44.2,0-88.5,0-132.7,0
		c-1.8,3.6-4.1,7-5.8,10.6c46.4,0,92.7,0,139.1,0c5.7,31.1,11.5,62.1,17.4,93.1c-15.2-0.1-30.5,0-45.7,0c-1.9-18.1-4-36.1-6.2-54.2
		c-43.1,0.2-86.2-0.1-129.3,0.1c-10.6,18.1-21.8,36-32.5,54c-15.1,0.1-30.2,0-45.3,0.1c42.9-70.2,85.7-140.5,128.6-210.8
		C799.7,118.9,826.5,75.3,853,31.5 M823.9,154c-15.9,25.8-32.3,51.4-48.1,77.3c20.3,0.1,40.5,0,60.8,0
		C832.2,205.6,828.3,179.7,823.9,154z"/>
	<path class="st0" d="M1044,31.5c50.3,0,100.7,0,151,0c10.3,0.1,20.6-0.3,30.9,0.3c18.9,1.7,38.4,3.3,55.9,11.2
		c16.7,9.5,33.3,20.8,44.3,37c5.3,7.5,7.1,16.7,9.6,25.3c3.1,10.9,5.1,22.3,4.1,33.6c-0.6,9.8-3.1,19.4-6,28.7
		c-3.9,12-8.8,23.9-17,33.6c-4.7,5.9-10.6,10.7-15.9,16c-8.1,6-16.4,11.7-24.6,17.6c6.7,6.7,14.1,13.3,17.8,22.2
		c3.6,10.5,5.5,21.7,5.3,32.8c-1.4,14.4-2.8,28.9-6.2,42.9c-1.5,7.4-5.1,14.4-5.5,22c0.6,6.3,3.1,12.2,4.4,18.5c-15,0-30,0-45,0
		c-3.5-9.8-7.7-19.8-6.6-30.4c1-11.7,2.8-23.4,4.5-35c2.3-12.9,2.3-26,1.7-39c-0.3-8.1-3.1-16.1-7.9-22.7c-4.2-6-10.8-10.3-18-11.4
		c9.4-4.8,19.4-8.9,28-15.2c5.7-3.9,9.9-9.4,14.9-14.1c9.5-9.1,18.6-19.5,22.3-32.4c1.9-7.5,3.5-15.2,5.3-22.8
		c2.8-12.4,2.8-26.2-3.8-37.5c-14.3-24.8-42.9-40.5-71.5-39.4c-44.5,0-88.9,0-133.4,0c-23.8,100-47.5,200-71.2,300
		c-16.1,0-32.2-0.1-48.2,0C989.9,259.5,1017.2,145.6,1044,31.5z"/>
	<path class="st0" d="M137.9,79.9c21.7-11.7,46.4-18.4,71.1-17.3c12.3,0.6,24.8,1.9,36.6,5.7c9.8,3.1,19,8.7,25.7,16.6
		c5.5,5.9,11.3,12.2,13.2,20.3c2.5,10.2,3.5,20.8,4.3,31.2c-16.4,0-32.8-0.1-49.1,0c-0.1-8.6-2-17.3-6.6-24.6
		c-3.3-5.2-8.3-9.5-14.1-11.5c-12.6-4.6-26.7-6.2-39.7-2.6c-7.9,2.1-14.9,7.5-18.7,14.8c-4.1,9.2,0.7,20.4,8.6,25.9
		c11.2,8,24.8,11.7,37.9,15.4c23.6,6.9,47.8,11.6,70.7,20.8c6.6,2.5,12.6,6.3,18.3,10.5c13.8,10,26.8,23.1,30.9,40.2
		c4.7,22.2,5,46.1-3.1,67.6c-9.9,23.6-26.2,44.9-47.5,59.2c-10.6,7.2-22.7,11.6-34.6,16.1c-30.1,11-62.4,17.7-94.5,14.9
		c-23.6-1.7-47.6-4.6-69.3-14.6c-12.7-5.9-23.6-14.9-33.3-24.9C29.8,329,17.5,311,13.2,290.5c-3.3-16.7-3.2-33.9-1.5-50.9
		c15.4,0.1,30.9,0,46.3,0c-0.1,7.8,0.3,15.5,0.5,23.3c1,13.2,2,26.6,6.4,39.2c5.8,13.9,15.6,26.6,29.1,33.8
		c4.7,2.5,9.6,4.5,14.7,6.1c34.7,10,73,10.8,106.8-2.8c15.5-6.3,30.4-14.6,42.5-26.3c15-14.6,23-35.5,24.2-56.2
		c0.1-9.3-2.3-18.8-8.1-26.2c-6.7-8.8-16.7-14.2-26.8-17.9c-24.6-9.4-50.3-14.9-75.5-22.3c-16.3-4.5-32.3-11-46-21.1
		c-9.8-7.3-17.9-17.8-19.6-30.2C102.5,115.2,116.8,90.8,137.9,79.9z"/>
	<path class="st0" d="M1492,70c14.3-1.8,28.9-1,43.1,1.3c11.5,2,23.1,5.1,32.8,11.8c5.9,3.9,9.8,9.9,13.9,15.6
		c4.2,6.2,7.1,13.3,7.9,20.7c0.9,7.8,2,15.5,3,23.2c-16.1,0-32.2,0-48.2,0c-0.4-10.8-3.1-22.3-11.2-30c-4.7-4.8-11.3-6.8-17.6-8.7
		c-12.3-3.3-26.2-3.8-37.7,2.3c-5.5,3.5-11,8-13.4,14.3c-2.4,6.2-0.1,13.2,3.3,18.5c5.6,7.1,14.2,10.9,22.4,14.3
		c19.4,7.2,39.7,11.6,59.7,17.1c17.3,5,35.4,9.5,50.3,20.3c13.9,9.6,26.5,22.5,31.2,39.1c2.8,11.8,3.6,24,3.3,36.1
		c-0.5,12.9-2.7,25.9-8.2,37.7c-11.6,25-30.4,47.5-55.4,59.9c-30.2,14.4-62.9,24.9-96.5,26.3c-12.3,0.7-24.7-0.5-36.9-1.9
		c-18.9-2.2-38-5.4-55.4-13.5c-9.4-4.3-17.9-10.2-25.4-17.2c-16.7-14.9-31.6-33.1-37.6-55c-4.8-18.4-4.6-37.7-2.9-56.5
		c15.4,0.1,30.7,0.1,46.1,0c0.4,15,0.7,30,3.1,44.8c1.2,7.2,2.5,14.5,5.9,21.1c3.8,7.7,8.4,15.1,14.6,21.1
		c8.7,9,20.5,14.3,32.5,17.4c21.9,5.4,44.8,7.8,67.3,4.8c22.7-2.9,44.5-11.4,63.4-24.2c12.6-8.6,23.5-20.3,29.6-34.4
		c4.9-11.4,8.3-23.7,7.9-36.2c-0.2-7.8-2.6-15.5-7.1-21.9c-5.8-7.8-14.1-13.3-23-16.9c-19.4-8.1-39.9-13-60.1-18.6
		c-16.3-4.6-33.1-8.4-48.3-16.1c-11.4-5.6-22.6-12.6-30.1-23c-6-8.1-8.4-18.5-7.8-28.5c1-20.2,14-38.4,31.2-48.4
		C1457.3,77.9,1474.5,72.4,1492,70z"/>
	<path class="st0" d="M447.4,92.7c1.3-4.5,1.9-9.3,3.6-13.7c65.5-0.1,131,0,196.5,0c-3.1,12.1-5.6,24.3-8.9,36.4
		c-50.3-0.3-100.6-0.1-150.9-0.1c-4.1,14.8-8.1,29.6-12.4,44.4c48.1,0,96.2,0,144.3,0c-2.9,12.3-5.8,24.6-8.5,37
		c-48.1,0-96.2,0-144.2,0c-0.6,3.8-1.4,7.5-2.1,11.3c47.6,0,95.2,0,142.8,0c-3.1,11.7-6.7,23.2-9.8,34.9c-47.8,0.3-95.7,0-143.5,0.2
		c-3.5,15.6-7.1,31.1-10.3,46.7c50.6-0.1,101.2,0,151.7-0.1c-2.7,11.6-5.6,23.2-8.4,34.8c-65.3,0-130.7-0.1-196,0
		C410,247.2,428.7,170,447.4,92.7z"/>
	<path class="st0" d="M1089.8,82.7c45.1,0.1,90.1,0,135.2,0c9.9,0.8,19.9,2.7,28.8,7.2c10,5.7,19,13.7,24.5,23.9
		c3.9,7,5.3,15.2,5,23.1c0.2,12.3-0.6,25.1-5.7,36.5c-3,6.9-8.1,12.6-12.7,18.4c-6.2,7.4-12.6,14.9-20.7,20.2c-9,5.4-19,8.9-29,12
		c-36.1,0.3-72.3,0-108.4,0.2c-1.4,3.5-2.9,7-4.6,10.4c30.6,0,61.3,0,91.9,0c10.2,0.8,21.1,2.3,29.3,8.9c6.4,6.5,12.7,14,14,23.4
		c1,7.9-0.1,15.9-1.1,23.8c-1.8,13.3-3.7,26.7-3.6,40.2c-0.1,14.3,1.6,28.5,4.6,42.5c-17.8-0.1-35.6,0.1-53.3-0.1
		c-2.8-12.2-5-24.7-4.1-37.3c0.9-11.8,2.1-23.6,4.6-35.1c2.4-7.4,1.2-15.8-3.6-22c-3.8-4.1-9.5-5.8-14.9-5.8
		c-23.9,0-47.7,0.1-71.6,0c-8.8,33.4-17.7,66.8-26.4,100.2c-15.9,0.1-31.8,0-47.7,0.1C1043.5,276.6,1066.7,179.6,1089.8,82.7
		 M1116.7,183.5c21.8,0.1,43.6-0.1,65.4,0.2c10.7-0.4,21.8-2.9,30.6-9.3c6.2-5.1,12.2-11.3,13.9-19.5c1.2-6.9,0.1-14.2-3.1-20.4
		c-5.2-6.3-13.5-8.9-20.9-11.8c-3.9-1.9-8.3-1.3-12.5-1.3c-20.3,0-40.7,0-61,0C1125,142,1120.9,162.8,1116.7,183.5z"/>
</g>
</svg>
